<svg id="Layer_1" data-name="Layer 1" xmlns="http://www.w3.org/2000/svg" viewBox="0 0 190.85 91.87"><polygon points="90.82 20.84 113.38 46 178.79 45.52 90.82 20.84" fill="#ed1b5a"/><polygon points="34.9 45.74 34.83 57.94 47.85 57.94 34.9 45.74" fill="#ed1b5a"/><polygon points="42.51 64.84 34.93 59.08 42.31 59.08 42.51 64.84" fill="#ed1b5a"/><polygon points="83.39 81.04 67.47 53.32 88.47 63.59 83.39 81.04" fill="#ed1b5a"/><polygon points="62.07 91.87 70.46 86.68 71.79 91.87 62.07 91.87" fill="#ed1b5a"/><polygon points="49.67 85.33 60.78 80.22 60.78 85.53 49.67 85.33" fill="#ed1b5a"/><polygon points="166.7 40.95 179.63 44.58 190.85 37.96 166.7 40.95" fill="#ed1b5a"/><polygon points="11.5 36.5 25.21 31.97 27.14 20.17 8.15 35.03 11.5 36.5" fill="#ed1b5a"/><polygon points="61.91 85.53 75.26 69.17 69.46 59.08 61.91 59.08 61.91 85.53" fill="#ed1b5a"/><polygon points="72.86 91.41 82.72 82.15 77.6 73.24 71.36 85.63 72.86 91.41" fill="#ed1b5a"/><polygon points="67.71 52.18 89.5 62.83 111.98 46.13 89.54 21.11 73.08 27.43 67.71 52.18" fill="#ed1b5a"/><polygon points="0 15.89 22.26 22.55 27.3 18.6 29.64 4.83 5.66 4.83 0 15.89" fill="#ed1b5a"/><polygon points="30.78 4.83 26.39 31.76 34.88 44.17 49.88 29.62 43.18 16.75 30.78 4.83" fill="#ed1b5a"/><polygon points="49.5 57.94 68.81 57.94 66.27 53.52 71.83 27.85 51.65 29.47 35.7 44.94 49.5 57.94" fill="#ed1b5a"/><polygon points="17.46 3.69 11.9 3.69 14.82 0 17.46 3.69" fill="#ed1b5a"/></svg>